<svg xmlns="http://www.w3.org/2000/svg" width="226.37" height="157.13" viewBox="0 0 54.73 32.83">
  <path fill="#f4c305" d="M21.05 21.24h10.96v14.17H21.05zM0 21.24h10.96v14.17H0z"/>
  <path fill="#00ab9f" d="M0 12.16h32.01v11.2H21c-6.74 0-4.2-6.22-6.98-5.4-1.88.56-2.81 7.67-3.06 10.68L0 23.88z"/>
  <path fill="#2f6eb4" d="M0-2.05s4.93-.93 7.22-.19c1.57.51 3.24 1.5 3.93 3 1.59 3.46-.67 11.4-.67 11.4H0zm20.86-.53h11.15v14.74H20.86z"/>
  <path fill="#df0025" d="M36.47-2.58h11.55c-9.35 6.08-17.71 21-11.37 28.02l-4.04 9.97H21.05z"/>
  <ellipse cx="51.31" cy="13.14" fill="#df0025" rx="6.94" ry="13.2" transform="matrix(.99966 -.02609 -.4064 .9137 0 0)"/>
</svg>
