<svg xmlns="http://www.w3.org/2000/svg" viewBox="0 0 57.371487 41.017925">
  <g transform="translate(-90.449703 -126.7142)">
    <path fill="#f4c305" d="M112.82592 152.23511h10.961309v14.174108H112.82592zm-21.053299 0h10.961309v14.174108H91.772621z"/>
    <path fill="#00ab9f" d="M91.77262 143.16368h32.01462v11.1881h-11.01803c-6.73373 0-4.20476-6.2176-6.97222-5.39255-1.88546.5621-2.81467 7.66825-3.06305 10.68421l-10.96132-4.7625z"/>
    <path fill="#2f6eb4" d="M91.77262 128.42261s5.066963-.86735 7.362887 0c1.574223.59471 3.139973 1.78472 3.787423 3.338 1.46492 3.51445-.66817 11.40307-.66817 11.40307H91.77262zm20.86427 0h11.150298v14.741073H112.63689z"/>
    <path fill="#df0025" d="M128.24475072 128.42259677h11.55287c-9.35443543 6.08038561-17.719991 21.0015831-11.37234283 28.01740552l-4.04652579 9.96919943h-11.55287z"/>
    <ellipse cx="203.16205" cy="160.84395" fill="#df0025" rx="6.943017" ry="13.198017" transform="matrix(.99966 -.02609 -.4064 .9137 0 0)"/>
  </g>
</svg>
