<svg xmlns="http://www.w3.org/2000/svg" width="226.4" height="157.1" viewBox="0 0 54.7 32.8">
  <path fill="#f4c305" d="M21.1 21.2h11v14.2h-11zM0 21.2h11v14.2H0z"/>
  <path fill="#00ab9f" d="M0 12.2h32v11.2H21c-6.7 0-4.2-6.3-7-5.4-1.9.5-2.8 7.6-3 10.6L0 24z"/>
  <path fill="#2f6eb4" d="M0-2s5-1 7.2-.2c1.6.5 3.3 1.5 4 3 1.5 3.4-.7 11.4-.7 11.4H0zm20.9-.6h11.2v14.7H20.9z"/>
  <path fill="#df0025" d="M36.5-2.6H48c-9.3 6.1-17.7 21-11.3 28l-4 10H21z"/>
  <ellipse cx="51.3" cy="13.1" fill="#df0025" rx="6.9" ry="13.2" transform="matrix(.99966 -.02609 -.4064 .9137 0 0)"/>
</svg>
